<?xml version="1.0" encoding="UTF-8" standalone="no"?>
<svg
   xmlns:dc="http://purl.org/dc/elements/1.1/"
   xmlns:cc="http://creativecommons.org/ns#"
   xmlns:rdf="http://www.w3.org/1999/02/22-rdf-syntax-ns#"
   xmlns:svg="http://www.w3.org/2000/svg"
   xmlns="http://www.w3.org/2000/svg"
   xmlns:sodipodi="http://sodipodi.sourceforge.net/DTD/sodipodi-0.dtd"
   xmlns:inkscape="http://www.inkscape.org/namespaces/inkscape"
   version="1.1"
   id="Capa_1"
   x="0px"
   y="0px"
   viewBox="0 0 224.068 181.909"
   xml:space="preserve"
   sodipodi:docname="liked.svg"
   width="224.06799"
   height="181.909"
   inkscape:version="1.0.2 (e86c8708, 2021-01-15)"><metadata
   id="metadata1460"><rdf:RDF><cc:Work
       rdf:about=""><dc:format>image/svg+xml</dc:format><dc:type
         rdf:resource="http://purl.org/dc/dcmitype/StillImage" /><dc:title></dc:title></cc:Work></rdf:RDF></metadata><defs
   id="defs1458">
	
	
	
	
	
</defs><sodipodi:namedview
   pagecolor="#ffffff"
   bordercolor="#666666"
   borderopacity="1"
   objecttolerance="10"
   gridtolerance="10"
   guidetolerance="10"
   inkscape:pageopacity="0"
   inkscape:pageshadow="2"
   inkscape:window-width="1920"
   inkscape:window-height="1027"
   id="namedview1456"
   showgrid="false"
   fit-margin-top="0"
   fit-margin-left="0"
   fit-margin-right="0"
   fit-margin-bottom="0"
   inkscape:zoom="1.4027392"
   inkscape:cx="112.034"
   inkscape:cy="78.527294"
   inkscape:window-x="0"
   inkscape:window-y="25"
   inkscape:window-maximized="1"
   inkscape:current-layer="Capa_1" />
<path
   d="m 136.675,71.342 c -9.151,0 -17.755,3.885 -24.62,10.913 -6.846,-7.1 -15.35,-10.913 -24.666,-10.913 -16.266,0 -30.635,11.799 -34.942,28.692 -2.257,8.849 -2.729,22.934 7.832,39.776 9.433,15.042 25.635,28.898 48.155,41.183 1.12,0.611 2.355,0.916 3.592,0.916 1.235,0 2.472,-0.305 3.591,-0.915 22.527,-12.285 38.734,-26.141 48.171,-41.183 10.566,-16.842 10.095,-30.926 7.839,-39.775 -4.309,-16.895 -18.681,-28.694 -34.952,-28.694 z m -24.65,94.478 C 62.798,137.691 65.054,111.295 66.981,103.74 69.551,93.659 78.134,86.342 87.388,86.342 c 7.04,0 13.512,4.284 18.221,12.063 1.358,2.244 3.791,3.615 6.415,3.616 0,0 0,0 0.001,0 2.623,0 5.056,-1.37 6.414,-3.613 4.715,-7.781 11.19,-12.066 18.235,-12.066 9.26,0 17.846,7.317 20.416,17.398 1.927,7.554 4.179,33.949 -45.065,62.08 z"
   id="path1413"
   style="fill:#bd3907;fill-opacity:0.980392;fill-rule:nonzero;stroke:none;stroke-opacity:1" /><path
   d="m 79.678,58.483 c 16.124,0 29.242,-13.117 29.242,-29.24 C 108.92,13.118 95.802,0 79.678,0 63.553,0 50.434,13.119 50.434,29.243 c 0,16.123 13.119,29.24 29.244,29.24 z m 0,-43.483 c 7.854,0 14.242,6.39 14.242,14.243 0,7.852 -6.389,14.24 -14.242,14.24 -7.854,0 -14.244,-6.388 -14.244,-14.24 C 65.434,21.389 71.823,15 79.678,15 Z"
   id="path1415"
   style="fill:#bc3908;fill-opacity:0.980392" /><path
   d="m 144.395,58.483 c 16.124,0 29.242,-13.117 29.242,-29.24 C 173.637,13.118 160.519,0 144.395,0 c -16.124,0 -29.242,13.119 -29.242,29.243 -0.001,16.123 13.117,29.24 29.242,29.24 z m 0,-43.483 c 7.853,0 14.242,6.39 14.242,14.243 0,7.852 -6.389,14.24 -14.242,14.24 -7.854,0 -14.242,-6.388 -14.242,-14.24 C 130.152,21.389 136.541,15 144.395,15 Z"
   id="path1417"
   style="fill:#bc3908;fill-opacity:0.980392" /><path
   d="M 27.066,44.34 C 12.142,44.34 0,56.483 0,71.409 0,86.333 12.142,98.474 27.066,98.474 41.992,98.474 54.134,86.332 54.134,71.409 54.135,56.483 41.992,44.34 27.066,44.34 Z m 0,39.134 C 20.413,83.474 15,78.062 15,71.409 c 0,-6.654 5.413,-12.068 12.066,-12.068 6.654,0 12.068,5.414 12.068,12.068 10e-4,6.653 -5.413,12.065 -12.068,12.065 z"
   id="path1419"
   style="fill:#bc3908;fill-opacity:0.980392" /><path
   d="m 197,44.34 c -14.925,0 -27.066,12.143 -27.066,27.068 0,14.924 12.142,27.065 27.066,27.065 14.926,0 27.068,-12.142 27.068,-27.065 C 224.068,56.483 211.926,44.34 197,44.34 Z m 0,39.134 c -6.653,0 -12.066,-5.413 -12.066,-12.065 0,-6.654 5.413,-12.068 12.066,-12.068 6.654,0 12.068,5.414 12.068,12.068 0,6.653 -5.414,12.065 -12.068,12.065 z"
   id="path1421"
   style="fill:#bc3908;fill-opacity:0.980392" />
<g
   id="g1425"
   transform="translate(0,-21.08)">
</g>
<g
   id="g1427"
   transform="translate(0,-21.08)">
</g>
<g
   id="g1429"
   transform="translate(0,-21.08)">
</g>
<g
   id="g1431"
   transform="translate(0,-21.08)">
</g>
<g
   id="g1433"
   transform="translate(0,-21.08)">
</g>
<g
   id="g1435"
   transform="translate(0,-21.08)">
</g>
<g
   id="g1437"
   transform="translate(0,-21.08)">
</g>
<g
   id="g1439"
   transform="translate(0,-21.08)">
</g>
<g
   id="g1441"
   transform="translate(0,-21.08)">
</g>
<g
   id="g1443"
   transform="translate(0,-21.08)">
</g>
<g
   id="g1445"
   transform="translate(0,-21.08)">
</g>
<g
   id="g1447"
   transform="translate(0,-21.08)">
</g>
<g
   id="g1449"
   transform="translate(0,-21.08)">
</g>
<g
   id="g1451"
   transform="translate(0,-21.08)">
</g>
<g
   id="g1453"
   transform="translate(0,-21.08)">
</g>
<path
   style="opacity:0.995;fill:#bd3907;fill-opacity:0.98;fill-rule:nonzero;stroke:#bd3907;stroke-width:0.252442;stroke-opacity:0.980392"
   d="m 86.974719,85.87352 c -8.613627,0.14255 -16.115257,6.48196 -19.307612,14.22943 -2.336045,4.83018 -1.95932,10.38536 -1.545871,15.5794 0.93394,6.96487 4.328643,13.34784 8.174355,19.12629 9.224401,12.84608 22.161791,22.50304 35.687099,30.43296 1.01999,0.70039 2.31996,1.35757 3.41442,0.38939 12.23099,-7.10679 23.87726,-15.59374 33.08718,-26.42114 5.38206,-6.89913 10.1414,-14.75077 11.50509,-23.5261 0.35643,-5.27915 0.75492,-10.9344 -1.69491,-15.81681 -3.23044,-7.69387 -10.75776,-13.89916 -19.32279,-13.99096 -6.56688,-0.25655 -12.57943,3.60588 -16.45766,8.67784 -2.04026,2.44037 -3.44447,5.98 -6.92246,6.65703 -2.87274,0.75515 -6.03621,-0.59254 -7.49647,-3.17399 -3.54636,-5.46624 -8.585138,-10.63456 -15.252563,-11.83992 -1.273262,-0.24273 -2.572082,-0.3477 -3.867808,-0.32342 z"
   id="path4014" /></svg>
