<?xml version="1.0" encoding="iso-8859-1"?>
<!-- Generator: Adobe Illustrator 16.0.0, SVG Export Plug-In . SVG Version: 6.00 Build 0)  -->
<!DOCTYPE svg PUBLIC "-//W3C//DTD SVG 1.1//EN" "http://www.w3.org/Graphics/SVG/1.1/DTD/svg11.dtd">
<svg version="1.1" id="Capa_1" xmlns="http://www.w3.org/2000/svg" xmlns:xlink="http://www.w3.org/1999/xlink" x="0px" y="0px"
	 width="95.855px" height="95.856px" viewBox="0 0 95.855 95.856" style="enable-background:new 0 0 95.855 95.856;"
	 xml:space="preserve">
<g>
	<g>
		<path d="M94.856,30.15c-0.619-0.357-1.382-0.357-2,0l-5.378,3.104c-0.618,0.357-1,1.018-1,1.732v51.492H9.377V9.377h30.63
			c0.365,0,0.722-0.1,1.034-0.288c3.404-2.057,7.006-3.813,10.707-5.22c0.902-0.343,1.432-1.281,1.258-2.23
			C52.831,0.69,52.004,0,51.038,0H2C0.896,0,0,0.896,0,2v91.854c0,1.104,0.896,2,2,2h91.855c1.104,0,2-0.896,2-2V31.882
			C95.856,31.167,95.475,30.507,94.856,30.15z" fill="#bc3908"/>
		<path d="M28.444,30.432c-0.578,0.764-0.534,1.829,0.104,2.542c0.638,0.713,1.692,0.876,2.515,0.383
			c7.664-4.575,15.22-6.895,22.458-6.895c5.39,0,8.666,1.361,9.053,1.529l0.036,6.543c0,0.715,0.381,1.375,1,1.732
			c0.31,0.179,0.655,0.268,1,0.268s0.69-0.09,1-0.268l27.442-15.847c0.619-0.357,1-1.018,1-1.732c0-0.714-0.381-1.375-1-1.732
			L65.611,1.109c-0.618-0.357-1.381-0.357-2,0s-1,1.018-1,1.732v6.096L62.6,8.938C62.402,8.964,42.549,11.812,28.444,30.432z" fill="#bc3908"/>
	</g>
</g>
<g>
</g>
<g>
</g>
<g>
</g>
<g>
</g>
<g>
</g>
<g>
</g>
<g>
</g>
<g>
</g>
<g>
</g>
<g>
</g>
<g>
</g>
<g>
</g>
<g>
</g>
<g>
</g>
<g>
</g>
</svg>
