<?xml version="1.0" standalone="no"?>
<!DOCTYPE svg PUBLIC "-//W3C//DTD SVG 20010904//EN"
 "http://www.w3.org/TR/2001/REC-SVG-20010904/DTD/svg10.dtd">
<svg version="1.0" xmlns="http://www.w3.org/2000/svg"
 width="675.000000pt" height="169.000000pt" viewBox="0 0 675.000000 169.000000"
 preserveAspectRatio="xMidYMid meet">
<metadata>
Created by potrace 1.16, written by Peter Selinger 2001-2019
</metadata>
<g transform="translate(0.000000,169.000000) scale(0.100000,-0.100000)"
fill="#000000" stroke="none">
<path d="M667 1526 c-86 -23 -146 -105 -147 -199 0 -119 85 -207 200 -207 68
0 109 19 152 69 44 52 61 112 49 175 -22 121 -136 193 -254 162z m124 -125
c66 -66 18 -181 -76 -181 -40 0 -95 59 -95 102 1 95 106 144 171 79z"/>
<path d="M1140 1530 c-152 -28 -218 -225 -114 -340 45 -50 90 -70 156 -70 104
0 187 79 196 185 12 142 -103 250 -238 225z m89 -114 c54 -29 67 -105 25 -155
-64 -76 -173 -34 -174 67 0 81 75 126 149 88z"/>
<path d="M2410 1434 c-145 -24 -225 -60 -295 -136 -160 -170 -180 -508 -42
-710 49 -72 139 -139 220 -163 82 -26 211 -30 299 -11 77 17 178 69 211 107
35 43 9 129 -39 129 -9 0 -55 -21 -102 -47 l-87 -48 -105 0 c-123 0 -164 16
-224 87 -59 68 -79 152 -74 302 4 115 6 128 37 190 80 164 280 205 462 95 36
-21 77 -39 91 -39 34 0 58 29 58 72 0 29 -7 42 -35 67 -45 39 -95 65 -165 85
-59 16 -169 27 -210 20z"/>
<path d="M4315 1405 c-25 -24 -25 -26 -25 -206 l0 -183 -32 33 c-57 59 -103
76 -198 76 -75 0 -91 -4 -139 -30 -91 -50 -142 -130 -162 -255 -22 -129 19
-277 96 -355 59 -58 115 -80 210 -80 92 0 141 20 192 78 l31 35 6 -37 c8 -50
35 -74 87 -74 28 0 47 7 62 22 22 21 22 25 25 473 2 312 -1 461 -8 479 -22 52
-104 66 -145 24z m-115 -434 c23 -12 44 -36 63 -71 23 -45 27 -64 27 -134 0
-147 -63 -226 -179 -226 -117 0 -181 84 -181 235 1 137 67 215 180 215 35 0
68 -7 90 -19z"/>
<path d="M5186 1409 l-26 -20 0 -185 c0 -101 -2 -184 -3 -184 -2 0 -23 18 -46
40 -54 51 -130 75 -215 66 -80 -8 -136 -37 -191 -98 -65 -72 -89 -157 -83
-287 5 -110 30 -179 88 -245 103 -117 300 -127 406 -21 l44 44 0 -30 c0 -42
15 -65 49 -77 38 -13 97 2 111 28 6 12 10 189 10 484 l0 465 -26 20 c-15 12
-41 21 -59 21 -18 0 -44 -9 -59 -21z m-115 -442 c55 -36 84 -106 84 -202 0
-96 -29 -166 -85 -203 -30 -20 -45 -23 -100 -20 -81 4 -118 28 -150 95 -43 88
-28 244 28 307 45 50 164 63 223 23z"/>
<path d="M5545 1405 l-25 -24 0 -455 c0 -321 3 -462 11 -480 14 -30 65 -50
103 -40 15 3 35 18 46 31 19 25 20 42 20 472 0 245 -3 456 -6 469 -14 52 -108
69 -149 27z"/>
<path d="M319 1210 c-59 -10 -105 -46 -133 -102 -40 -80 -30 -151 30 -218 42
-46 89 -64 155 -58 66 7 114 41 146 106 21 44 25 61 20 104 -14 112 -110 186
-218 168z m88 -124 c34 -29 39 -92 9 -125 -43 -48 -125 -30 -145 32 -29 88 66
153 136 93z"/>
<path d="M1512 1209 c-179 -32 -204 -294 -35 -365 141 -60 288 70 254 221 -24
103 -114 162 -219 144z m79 -109 c10 -6 26 -24 34 -41 50 -95 -90 -176 -146
-86 -47 76 34 168 112 127z"/>
<path d="M3000 1117 c-48 -24 -51 -44 -47 -292 5 -260 12 -297 74 -359 90 -90
265 -87 360 6 l43 42 0 -31 c0 -73 88 -106 144 -54 l26 24 0 309 c0 183 -4
317 -10 328 -22 42 -112 47 -147 8 -16 -18 -19 -46 -23 -238 -5 -202 -7 -221
-26 -247 -51 -69 -137 -93 -205 -57 -53 27 -59 59 -59 301 -1 235 -2 243 -54
263 -35 13 -45 13 -76 -3z"/>
<path d="M5870 1123 c-30 -11 -60 -47 -60 -72 0 -13 61 -152 136 -308 l137
-284 -52 -109 c-57 -121 -63 -161 -29 -184 30 -22 91 -20 111 2 27 30 417 856
417 884 0 29 -33 67 -59 69 -33 3 -57 -3 -71 -17 -8 -8 -60 -114 -115 -235
-55 -122 -104 -222 -108 -223 -4 0 -53 98 -108 219 -54 121 -107 227 -117 237
-19 19 -60 30 -82 21z"/>
<path d="M706 1010 c-90 -27 -165 -123 -181 -233 -26 -170 116 -374 360 -522
55 -33 59 -34 92 -20 113 47 299 218 352 322 74 149 60 296 -38 391 -87 84
-204 94 -303 26 l-38 -27 -38 27 c-63 44 -137 56 -206 36z m140 -117 c11 -7
35 -31 53 -53 18 -22 40 -40 51 -40 10 0 35 20 55 44 68 83 154 91 222 20 84
-90 51 -249 -81 -379 -55 -55 -177 -145 -196 -145 -19 0 -141 90 -196 145 -96
95 -143 207 -122 297 24 108 132 164 214 111z"/>
</g>
</svg>
